<?xml version="1.0" encoding="UTF-8"?>
<svg width="1440px" height="3385px" viewBox="0 0 1440 3385" version="1.1" xmlns="http://www.w3.org/2000/svg" xmlns:xlink="http://www.w3.org/1999/xlink">
    <!-- Generator: Sketch 53.2 (72643) - https://sketchapp.com -->
    <title>Group 14</title>
    <desc>Created with Sketch.</desc>
    <defs>
        <rect id="path-1" x="0" y="0" width="1444" height="3385"></rect>
        <linearGradient x1="50%" y1="54.19394%" x2="50%" y2="0.0290329392%" id="linearGradient-3">
            <stop stop-color="#397DC0" offset="0.0290329392%"></stop>
            <stop stop-color="#FFFFFF" offset="54.19394%"></stop>
            <stop stop-color="#397DC0" offset="100%"></stop>
        </linearGradient>
        <linearGradient x1="50%" y1="100%" x2="50%" y2="0%" id="linearGradient-4">
            <stop stop-color="#FFFFFF" offset="0%"></stop>
            <stop stop-color="#397DC0" offset="100%"></stop>
        </linearGradient>
        <linearGradient x1="50%" y1="0%" x2="50%" y2="100%" id="linearGradient-5">
            <stop stop-color="#FFFFFF" offset="0%"></stop>
            <stop stop-color="#397DC0" offset="100%"></stop>
        </linearGradient>
    </defs>
    <g id="Page-1" stroke="none" stroke-width="1" fill="none" fill-rule="evenodd">
        <g id="SJI-Homepage">
            <g id="bg" transform="translate(-157.000000, 0.000000)">
                <g id="Group-14" transform="translate(157.000000, 0.000000)">
                    <mask id="mask-2" fill="white">
                        <use xlink:href="#path-1"></use>
                    </mask>
                    <use id="Mask" fill="#FFFFFF" xlink:href="#path-1"></use>
                    <g mask="url(#mask-2)">
                        <g transform="translate(-157.000000, 0.000000)">
                            <rect id="Rectangle-2" fill-opacity="0.09" fill="url(#linearGradient-3)" x="157" y="1345" width="1440" height="2052"></rect>
                            <rect id="Rectangle-2" fill-opacity="0.08" fill="url(#linearGradient-4)" x="157" y="0" width="1440" height="745"></rect>
                            <rect id="Rectangle-2" fill-opacity="0.08" fill="url(#linearGradient-5)" x="157" y="746" width="1440" height="599"></rect>
                            <g id="bg-element-set-2" stroke-width="1" fill="none" transform="translate(137.000000, 1589.000000)">
                                <g id="bg-shape-4" stroke-width="2">
                                    <path d="M781,1807 C461.123884,1805.1126 249.73298,1748.29225 146.827288,1636.53895 C-7.53125,1468.90898 33.0078125,1117.0177 80.0390625,751.503732 C127.070312,385.989767 129.773438,155.595204 20,0" id="Path-4" stroke="#0D4781" opacity="0.18"></path>
                                    <path d="M761,1894 C441.123884,1892.1126 229.73298,1835.29225 126.827288,1723.53895 C-27.53125,1555.90898 13.0078125,1204.0177 60.0390625,838.503732 C107.070312,472.989767 109.773438,242.595204 0,87" id="Path-4" stroke="#FFFFFF"></path>
                                </g>
                                <g id="Group-29" transform="translate(98.000000, 1302.000000)" stroke-width="2">
                                    <path d="M107,13 C107,20.1812 101.1812,26 94,26 C86.8214,26 81,20.1812 81,13 C81,5.8214 86.8214,0 94,0 C101.1812,0 107,5.8214 107,13 Z" id="Stroke-1" stroke="#FFFFFF" fill="#FFFFFF"></path>
                                    <path d="M107,67 C107,74.1812 101.1812,80 94,80 C86.8214,80 81,74.1812 81,67 C81,59.8214 86.8214,54 94,54 C101.1812,54 107,59.8214 107,67 Z" id="Stroke-3" stroke="#FFFFFF" fill="#FFFFFF"></path>
                                    <path d="M107,121 C107,128.1812 101.1812,134 94,134 C86.8214,134 81,128.1812 81,121 C81,113.8214 86.8214,108 94,108 C101.1812,108 107,113.8214 107,121 Z" id="Stroke-5" stroke="#FFFFFF" fill="#FFFFFF"></path>
                                    <path d="M107,175 C107,182.1812 101.1812,188 94,188 C86.8214,188 81,182.1812 81,175 C81,167.8214 86.8214,162 94,162 C101.1812,162 107,167.8214 107,175 Z" id="Stroke-7" stroke="#FFFFFF" fill="#FFFFFF"></path>
                                    <path d="M148,39 C148,46.1812 142.1812,52 135,52 C127.8214,52 122,46.1812 122,39 C122,31.8214 127.8214,26 135,26 C142.1812,26 148,31.8214 148,39 Z" id="Stroke-9" stroke="#FFFFFF" fill="#FFFFFF"></path>
                                    <path d="M148,93 C148,100.1812 142.1812,106 135,106 C127.8214,106 122,100.1812 122,93 C122,85.8214 127.8214,80 135,80 C142.1812,80 148,85.8214 148,93 Z" id="Stroke-11" stroke="#0D4781" opacity="0.176385789"></path>
                                    <path d="M148,147 C148,154.1812 142.1812,160 135,160 C127.8214,160 122,154.1812 122,147 C122,139.8214 127.8214,134 135,134 C142.1812,134 148,139.8214 148,147 Z" id="Stroke-13" stroke="#FFFFFF" fill="#FFFFFF"></path>
                                    <path d="M188,64 C188,71.1812 182.1786,77 175,77 C167.8214,77 162,71.1812 162,64 C162,56.8214 167.8214,51 175,51 C182.1786,51 188,56.8214 188,64 Z" id="Stroke-15" stroke="#0D4781" opacity="0.176385789"></path>
                                    <path d="M188,119 C188,126.1812 182.1786,132 175,132 C167.8214,132 162,126.1812 162,119 C162,111.8214 167.8214,106 175,106 C182.1786,106 188,111.8214 188,119 Z" id="Stroke-17" stroke="#0D4781" opacity="0.176385789"></path>
                                    <path d="M67,39 C67,46.1812 61.1786,52 54,52 C46.8188,52 41,46.1812 41,39 C41,31.8214 46.8188,26 54,26 C61.1786,26 67,31.8214 67,39 Z" id="Stroke-19" stroke="#FFFFFF" fill="#FFFFFF"></path>
                                    <path d="M67,93 C67,100.1812 61.1786,106 54,106 C46.8188,106 41,100.1812 41,93 C41,85.8214 46.8188,80 54,80 C61.1786,80 67,85.8214 67,93 Z" id="Stroke-21" stroke="#0D4781" opacity="0.176385789"></path>
                                    <path d="M67,147 C67,154.1812 61.1786,160 54,160 C46.8188,160 41,154.1812 41,147 C41,139.8214 46.8188,134 54,134 C61.1786,134 67,139.8214 67,147 Z" id="Stroke-23" stroke="#FFFFFF" fill="#FFFFFF"></path>
                                    <path d="M26,64 C26,71.1812 20.1786,77 13,77 C5.8188,77 0,71.1812 0,64 C0,56.8214 5.8188,51 13,51 C20.1786,51 26,56.8214 26,64 Z" id="Stroke-25" stroke="#0D4781" opacity="0.176385789"></path>
                                    <path d="M26,119 C26,126.1812 20.1786,132 13,132 C5.8188,132 0,126.1812 0,119 C0,111.8214 5.8188,106 13,106 C20.1786,106 26,111.8214 26,119 Z" id="Stroke-27" stroke="#0D4781" opacity="0.176385789"></path>
                                </g>
                            </g>
                            <g id="bg-element-set-1" stroke-width="1" fill="none" transform="translate(1414.000000, 153.000000)">
                                <g id="bg-shape-4" transform="translate(40.000000, 20.000000)" stroke-width="2">
                                    <path d="M0,1257 C61.9711435,1096.41095 141.366307,905.48448 238.185489,684.220585 C383.414263,352.324742 287.859161,238.405046 178.219708,122" id="Path-4" stroke="#FFFFFF" transform="translate(156.000000, 689.500000) scale(-1, 1) translate(-156.000000, -689.500000) "></path>
                                    <path d="M23,1399 C399.742129,1370.08763 536.625758,1313.85263 433.650885,1230.295 C279.188575,1104.95856 486.467618,863.151237 625.779961,604.37046 C765.092305,345.589684 675.547772,158.811358 565.700536,42.4732693 C492.469046,-35.0854566 392.990756,-6.42403403 267.265666,128.457537" id="Path-4" stroke="#0D4781" opacity="0.18" transform="translate(360.000000, 699.500000) scale(-1, 1) translate(-360.000000, -699.500000) "></path>
                                </g>
                                <g id="bg-shape-1" stroke-width="2">
                                    <path d="M66,13 C66,20.1812 60.1812,26 53,26 C45.8214,26 40,20.1812 40,13 C40,5.8214 45.8214,0 53,0 C60.1812,0 66,5.8214 66,13 Z" id="Stroke-5" stroke="#38418F" opacity="0.18"></path>
                                    <path d="M66,67 C66,74.1812 60.1812,80 53,80 C45.8214,80 40,74.1812 40,67 C40,59.8214 45.8214,54 53,54 C60.1812,54 66,59.8214 66,67 Z" id="Stroke-7" stroke="#38418F" opacity="0.18"></path>
                                    <path d="M107,39 C107,46.1812 101.1812,52 94,52 C86.8214,52 81,46.1812 81,39 C81,31.8214 86.8214,26 94,26 C101.1812,26 107,31.8214 107,39 Z" id="Stroke-13" stroke="#FFFFFF" fill="#FFFFFF"></path>
                                    <path d="M26,39 C26,46.1812 20.1786,52 13,52 C5.8188,52 0,46.1812 0,39 C0,31.8214 5.8188,26 13,26 C20.1786,26 26,31.8214 26,39 Z" id="Stroke-23" stroke="#FFFFFF" fill="#FFFFFF"></path>
                                </g>
                            </g>
                            <g id="bg-shape-5" stroke-width="1" fill="none" transform="translate(1414.000000, 3127.000000)">
                                <path d="M66,13 C66,20.1812 60.1812,26 53,26 C45.8214,26 40,20.1812 40,13 C40,5.8214 45.8214,0 53,0 C60.1812,0 66,5.8214 66,13 Z" id="Stroke-5" stroke="#0D4781" stroke-width="2" opacity="0.18"></path>
                                <path d="M66,67 C66,74.1812 60.1812,80 53,80 C45.8214,80 40,74.1812 40,67 C40,59.8214 45.8214,54 53,54 C60.1812,54 66,59.8214 66,67 Z" id="Stroke-7" stroke="#0D4781" stroke-width="2" opacity="0.18"></path>
                                <path d="M107,39 C107,46.1812 101.1812,52 94,52 C86.8214,52 81,46.1812 81,39 C81,31.8214 86.8214,26 94,26 C101.1812,26 107,31.8214 107,39 Z" id="Stroke-13" stroke="#FFFFFF" stroke-width="2" fill="#FFFFFF"></path>
                                <path d="M26,39 C26,46.1812 20.1786,52 13,52 C5.8188,52 0,46.1812 0,39 C0,31.8214 5.8188,26 13,26 C20.1786,26 26,31.8214 26,39 Z" id="Stroke-23" stroke="#FFFFFF" stroke-width="2" fill="#FFFFFF"></path>
                            </g>
                            <g id="bg-shape-2" stroke-width="1" fill="none" transform="translate(1333.000000, 2061.000000)">
                                <path d="M107,13 C107,20.1812 101.1812,26 94,26 C86.8214,26 81,20.1812 81,13 C81,5.8214 86.8214,0 94,0 C101.1812,0 107,5.8214 107,13 Z" id="Stroke-1" fill="#FFFFFF"></path>
                                <path d="M107,67 C107,74.1812 101.1812,80 94,80 C86.8214,80 81,74.1812 81,67 C81,59.8214 86.8214,54 94,54 C101.1812,54 107,59.8214 107,67 Z" id="Stroke-3" fill="#FFFFFF"></path>
                                <path d="M107,121 C107,128.1812 101.1812,134 94,134 C86.8214,134 81,128.1812 81,121 C81,113.8214 86.8214,108 94,108 C101.1812,108 107,113.8214 107,121 Z" id="Stroke-5" fill="#FFFFFF"></path>
                                <path d="M107,175 C107,182.1812 101.1812,188 94,188 C86.8214,188 81,182.1812 81,175 C81,167.8214 86.8214,162 94,162 C101.1812,162 107,167.8214 107,175 Z" id="Stroke-7" fill="#FFFFFF"></path>
                                <path d="M148,39 C148,46.1812 142.1812,52 135,52 C127.8214,52 122,46.1812 122,39 C122,31.8214 127.8214,26 135,26 C142.1812,26 148,31.8214 148,39 Z" id="Stroke-9" fill="#FFFFFF"></path>
                                <path d="M148,93 C148,100.1812 142.1812,106 135,106 C127.8214,106 122,100.1812 122,93 C122,85.8214 127.8214,80 135,80 C142.1812,80 148,85.8214 148,93 Z" id="Stroke-11" stroke="#0D4781" stroke-width="2" opacity="0.182686942"></path>
                                <path d="M148,147 C148,154.1812 142.1812,160 135,160 C127.8214,160 122,154.1812 122,147 C122,139.8214 127.8214,134 135,134 C142.1812,134 148,139.8214 148,147 Z" id="Stroke-13" fill="#FFFFFF"></path>
                                <path d="M188,64 C188,71.1812 182.1786,77 175,77 C167.8214,77 162,71.1812 162,64 C162,56.8214 167.8214,51 175,51 C182.1786,51 188,56.8214 188,64 Z" id="Stroke-15" stroke="#0D4781" stroke-width="2" opacity="0.182686942"></path>
                                <path d="M188,119 C188,126.1812 182.1786,132 175,132 C167.8214,132 162,126.1812 162,119 C162,111.8214 167.8214,106 175,106 C182.1786,106 188,111.8214 188,119 Z" id="Stroke-17" stroke="#0D4781" stroke-width="2" opacity="0.182686942"></path>
                                <path d="M67,39 C67,46.1812 61.1786,52 54,52 C46.8188,52 41,46.1812 41,39 C41,31.8214 46.8188,26 54,26 C61.1786,26 67,31.8214 67,39 Z" id="Stroke-19" fill="#FFFFFF"></path>
                                <path d="M67,93 C67,100.1812 61.1786,106 54,106 C46.8188,106 41,100.1812 41,93 C41,85.8214 46.8188,80 54,80 C61.1786,80 67,85.8214 67,93 Z" id="Stroke-21" stroke="#0D4781" stroke-width="2" opacity="0.182686942"></path>
                                <path d="M67,147 C67,154.1812 61.1786,160 54,160 C46.8188,160 41,154.1812 41,147 C41,139.8214 46.8188,134 54,134 C61.1786,134 67,139.8214 67,147 Z" id="Stroke-23" fill="#FFFFFF"></path>
                                <path d="M26,64 C26,71.1812 20.1786,77 13,77 C5.8188,77 0,71.1812 0,64 C0,56.8214 5.8188,51 13,51 C20.1786,51 26,56.8214 26,64 Z" id="Stroke-25" stroke="#0D4781" stroke-width="2" opacity="0.182686942"></path>
                                <path d="M26,119 C26,126.1812 20.1786,132 13,132 C5.8188,132 0,126.1812 0,119 C0,111.8214 5.8188,106 13,106 C20.1786,106 26,111.8214 26,119 Z" id="Stroke-27" stroke="#0D4781" stroke-width="2" opacity="0.182686942"></path>
                            </g>
                            <g id="bg-shape-3" stroke-width="1" fill="none" transform="translate(0.000000, 888.000000)">
                                <path d="M179,21.5 C179,33.3766 169.3766,43 157.5,43 C145.6277,43 136,33.3766 136,21.5 C136,9.6277 145.6277,0 157.5,0 C169.3766,0 179,9.6277 179,21.5 Z" id="Stroke-1" fill="#FFFFFF"></path>
                                <path d="M179,111.5 C179,123.3766 169.3766,133 157.5,133 C145.6277,133 136,123.3766 136,111.5 C136,99.6277 145.6277,90 157.5,90 C169.3766,90 179,99.6277 179,111.5 Z" id="Stroke-3" fill="#FFFFFF"></path>
                                <path d="M179,202.5 C179,214.3766 169.3766,224 157.5,224 C145.6277,224 136,214.3766 136,202.5 C136,190.6277 145.6277,181 157.5,181 C169.3766,181 179,190.6277 179,202.5 Z" id="Stroke-5" fill="#FFFFFF"></path>
                                <path d="M179,292.5 C179,304.3766 169.3766,314 157.5,314 C145.6277,314 136,304.3766 136,292.5 C136,280.6277 145.6277,271 157.5,271 C169.3766,271 179,280.6277 179,292.5 Z" id="Stroke-7" fill="#FFFFFF"></path>
                                <path d="M247,65.5 C247,77.3766 237.3766,87 225.5,87 C213.6277,87 204,77.3766 204,65.5 C204,53.6277 213.6277,44 225.5,44 C237.3766,44 247,53.6277 247,65.5 Z" id="Stroke-9" fill="#FFFFFF"></path>
                                <path d="M247,155.5 C247,167.3766 237.3766,177 225.5,177 C213.6277,177 204,167.3766 204,155.5 C204,143.6277 213.6277,134 225.5,134 C237.3766,134 247,143.6277 247,155.5 Z" id="Stroke-11" stroke="#0D4781" stroke-width="2" opacity="0.182686942"></path>
                                <path d="M247,245.5 C247,257.3766 237.3766,267 225.5,267 C213.6277,267 204,257.3766 204,245.5 C204,233.6277 213.6277,224 225.5,224 C237.3766,224 247,233.6277 247,245.5 Z" id="Stroke-13" fill="#FFFFFF"></path>
                                <path d="M314,106.5 C314,118.3766 304.3723,128 292.5,128 C280.6277,128 271,118.3766 271,106.5 C271,94.6277 280.6277,85 292.5,85 C304.3723,85 314,94.6277 314,106.5 Z" id="Stroke-15" stroke="#0D4781" stroke-width="2" opacity="0.182686942"></path>
                                <path d="M314,198.5 C314,210.3766 304.3723,220 292.5,220 C280.6277,220 271,210.3766 271,198.5 C271,186.6277 280.6277,177 292.5,177 C304.3723,177 314,186.6277 314,198.5 Z" id="Stroke-17" stroke="#0D4781" stroke-width="2" opacity="0.182686942"></path>
                            </g>
                        </g>
                    </g>
                </g>
            </g>
        </g>
    </g>
</svg>