<svg id="Layer_1" data-name="Layer 1" xmlns="http://www.w3.org/2000/svg" xmlns:xlink="http://www.w3.org/1999/xlink" viewBox="0 0 1440 3385"><defs><style>.cls-1{fill:#fff;}.cls-2{fill:#262626;stroke:#000;stroke-miterlimit:10;}.cls-3{mask:url(#mask);}.cls-4{fill-opacity:0.09;fill:url(#linear-gradient);}.cls-5,.cls-6{fill-opacity:0.08;}.cls-5{fill:url(#linear-gradient-2);}.cls-6{fill:url(#linear-gradient-3);}.cls-10,.cls-11,.cls-7,.cls-8{fill:none;stroke:#999;stroke-width:0.5px;}.cls-7{opacity:0.18;}.cls-10,.cls-11,.cls-7{isolation:isolate;}.cls-9{fill:#444;fill-rule:evenodd;}.cls-10{opacity:0.18;}.cls-11{opacity:0.18;}</style><mask id="mask" x="-21" y="0" width="2015.02" height="3483.25" maskUnits="userSpaceOnUse"><g id="mask-2"><rect id="path-1" class="cls-1" width="1444" height="3385"/></g></mask><linearGradient id="linear-gradient" x1="520.14" y1="1893.19" x2="520.14" y2="1893.73" gradientTransform="matrix(1440, 0, 0, -2052, -748280, 3887274)" gradientUnits="userSpaceOnUse"><stop offset="0" stop-color="#397dc0"/><stop offset="0.54" stop-color="#fff"/><stop offset="1" stop-color="#397dc0"/></linearGradient><linearGradient id="linear-gradient-2" x1="520.14" y1="1894" x2="520.14" y2="1895" gradientTransform="matrix(1440, 0, 0, -745, -748280, 1411778)" gradientUnits="userSpaceOnUse"><stop offset="0" stop-color="#fff"/><stop offset="1" stop-color="#397dc0"/></linearGradient><linearGradient id="linear-gradient-3" x1="520.14" y1="1895.49" x2="520.14" y2="1894.49" gradientTransform="matrix(1440, 0, 0, -599, -748280, 1136146)" xlink:href="#linear-gradient-2"/></defs><rect class="cls-2" x="-37.11" y="-26.15" width="1505.36" height="3433.53"/><g id="Page-1"><g id="SJI-Homepage"><g id="bg"><g id="Group-14"><g class="cls-3"><rect id="Rectangle-2" class="cls-4" y="1345" width="1440" height="2052"/><rect id="Rectangle-2-2" data-name="Rectangle-2" class="cls-5" width="1440" height="745"/><rect id="Rectangle-2-3" data-name="Rectangle-2" class="cls-6" y="746" width="1440" height="599"/><g id="bg-element-set-2"><g id="bg-shape-4"><path id="Path-4" class="cls-7" d="M761,3396q-479.82-2.84-634.17-170.46C-27.53,3057.91,13,2706,60,2340.5S109.77,1744.6,0,1589"/><path id="Path-4-2" data-name="Path-4" class="cls-8" d="M741,3483q-479.82-2.84-634.17-170.46C-47.53,3144.91-7,2793,40,2427.5S89.77,1831.6-20,1676"/></g><g id="Group-29"><path id="Stroke-1" class="cls-9" d="M185,2904a13,13,0,1,1-13-13A13,13,0,0,1,185,2904Z"/><path id="Stroke-3" class="cls-9" d="M185,2958a13,13,0,1,1-13-13A13,13,0,0,1,185,2958Z"/><path id="Stroke-5" class="cls-9" d="M185,3012a13,13,0,1,1-13-13A13,13,0,0,1,185,3012Z"/><path id="Stroke-7" class="cls-9" d="M185,3066a13,13,0,1,1-13-13A13,13,0,0,1,185,3066Z"/><path id="Stroke-9" class="cls-9" d="M226,2930a13,13,0,1,1-13-13A13,13,0,0,1,226,2930Z"/><path id="Stroke-11" class="cls-10" d="M226,2984a13,13,0,1,1-13-13A13,13,0,0,1,226,2984Z"/><path id="Stroke-13" class="cls-9" d="M226,3038a13,13,0,1,1-13-13A13,13,0,0,1,226,3038Z"/><path id="Stroke-15" class="cls-10" d="M266,2955a13,13,0,1,1-13-13A13,13,0,0,1,266,2955Z"/><path id="Stroke-17" class="cls-10" d="M266,3010a13,13,0,1,1-13-13A13,13,0,0,1,266,3010Z"/><path id="Stroke-19" class="cls-9" d="M145,2930a13,13,0,1,1-13-13A13,13,0,0,1,145,2930Z"/><path id="Stroke-21" class="cls-10" d="M145,2984a13,13,0,1,1-13-13A13,13,0,0,1,145,2984Z"/><path id="Stroke-23" class="cls-9" d="M145,3038a13,13,0,1,1-13-13A13,13,0,0,1,145,3038Z"/><path id="Stroke-25" class="cls-10" d="M104,2955a13,13,0,1,1-13-13A13,13,0,0,1,104,2955Z"/><path id="Stroke-27" class="cls-10" d="M104,3010a13,13,0,1,1-13-13A13,13,0,0,1,104,3010Z"/></g></g><g id="bg-element-set-1"><g id="bg-shape-4-2" data-name="bg-shape-4"><path id="Path-4-3" data-name="Path-4" class="cls-8" d="M1609,1430q-93-240.88-238.19-572.78c-145.22-331.9-49.67-445.81,60-562.22"/><path id="Path-4-4" data-name="Path-4" class="cls-7" d="M1994,1572q-565.11-43.37-410.65-168.7c154.46-125.34-52.82-367.15-192.13-625.93s-49.77-445.56,60.08-561.9q109.85-116.34,298.43,86"/></g><g id="bg-shape-1"><path id="Stroke-5-2" data-name="Stroke-5" class="cls-7" d="M1323,166a13,13,0,1,1-13-13A13,13,0,0,1,1323,166Z"/><path id="Stroke-7-2" data-name="Stroke-7" class="cls-7" d="M1323,220a13,13,0,1,1-13-13A13,13,0,0,1,1323,220Z"/><path id="Stroke-13-2" data-name="Stroke-13" class="cls-9" d="M1364,192a13,13,0,1,1-13-13A13,13,0,0,1,1364,192Z"/><path id="Stroke-23-2" data-name="Stroke-23" class="cls-9" d="M1283,192a13,13,0,1,1-13-13A13,13,0,0,1,1283,192Z"/></g></g><g id="bg-shape-5"><path id="Stroke-5-3" data-name="Stroke-5" class="cls-7" d="M1323,3140a13,13,0,1,1-13-13A13,13,0,0,1,1323,3140Z"/><path id="Stroke-7-3" data-name="Stroke-7" class="cls-7" d="M1323,3194a13,13,0,1,1-13-13A13,13,0,0,1,1323,3194Z"/><path id="Stroke-13-3" data-name="Stroke-13" class="cls-9" d="M1364,3166a13,13,0,1,1-13-13A13,13,0,0,1,1364,3166Z"/><path id="Stroke-23-3" data-name="Stroke-23" class="cls-9" d="M1283,3166a13,13,0,1,1-13-13A13,13,0,0,1,1283,3166Z"/></g><g id="bg-shape-2"><path id="Stroke-1-2" data-name="Stroke-1" class="cls-9" d="M1283,2074a13,13,0,1,1-13-13A13,13,0,0,1,1283,2074Z"/><path id="Stroke-3-2" data-name="Stroke-3" class="cls-9" d="M1283,2128a13,13,0,1,1-13-13A13,13,0,0,1,1283,2128Z"/><path id="Stroke-5-4" data-name="Stroke-5" class="cls-9" d="M1283,2182a13,13,0,1,1-13-13A13,13,0,0,1,1283,2182Z"/><path id="Stroke-7-4" data-name="Stroke-7" class="cls-9" d="M1283,2236a13,13,0,1,1-13-13A13,13,0,0,1,1283,2236Z"/><path id="Stroke-9-2" data-name="Stroke-9" class="cls-9" d="M1324,2100a13,13,0,1,1-13-13A13,13,0,0,1,1324,2100Z"/><path id="Stroke-11-2" data-name="Stroke-11" class="cls-11" d="M1324,2154a13,13,0,1,1-13-13A13,13,0,0,1,1324,2154Z"/><path id="Stroke-13-4" data-name="Stroke-13" class="cls-9" d="M1324,2208a13,13,0,1,1-13-13A13,13,0,0,1,1324,2208Z"/><path id="Stroke-15-2" data-name="Stroke-15" class="cls-11" d="M1364,2125a13,13,0,1,1-13-13A13,13,0,0,1,1364,2125Z"/><path id="Stroke-17-2" data-name="Stroke-17" class="cls-11" d="M1364,2180a13,13,0,1,1-13-13A13,13,0,0,1,1364,2180Z"/><path id="Stroke-19-2" data-name="Stroke-19" class="cls-9" d="M1243,2100a13,13,0,1,1-13-13A13,13,0,0,1,1243,2100Z"/><path id="Stroke-21-2" data-name="Stroke-21" class="cls-11" d="M1243,2154a13,13,0,1,1-13-13A13,13,0,0,1,1243,2154Z"/><path id="Stroke-23-4" data-name="Stroke-23" class="cls-9" d="M1243,2208a13,13,0,1,1-13-13A13,13,0,0,1,1243,2208Z"/><path id="Stroke-25-2" data-name="Stroke-25" class="cls-11" d="M1202,2125a13,13,0,1,1-13-13A13,13,0,0,1,1202,2125Z"/><path id="Stroke-27-2" data-name="Stroke-27" class="cls-11" d="M1202,2180a13,13,0,1,1-13-13A13,13,0,0,1,1202,2180Z"/></g><g id="bg-shape-3"><path id="Stroke-1-3" data-name="Stroke-1" class="cls-9" d="M22,909.5A21.49,21.49,0,0,1,.5,931,21.5,21.5,0,0,1-21,909.5a21.5,21.5,0,0,1,43,0Z"/><path id="Stroke-3-3" data-name="Stroke-3" class="cls-9" d="M22,999.5A21.49,21.49,0,0,1,.5,1021,21.5,21.5,0,0,1-21,999.5a21.5,21.5,0,0,1,43,0Z"/><path id="Stroke-5-5" data-name="Stroke-5" class="cls-9" d="M22,1090.5A21.49,21.49,0,0,1,.5,1112,21.5,21.5,0,0,1-21,1090.5a21.5,21.5,0,0,1,43,0Z"/><path id="Stroke-7-5" data-name="Stroke-7" class="cls-9" d="M22,1180.5A21.49,21.49,0,0,1,.5,1202,21.5,21.5,0,0,1-21,1180.5a21.5,21.5,0,0,1,43,0Z"/><path id="Stroke-9-3" data-name="Stroke-9" class="cls-9" d="M90,953.5A21.5,21.5,0,1,1,68.5,932,21.49,21.49,0,0,1,90,953.5Z"/><path id="Stroke-11-3" data-name="Stroke-11" class="cls-11" d="M90,1043.5A21.5,21.5,0,1,1,68.5,1022,21.49,21.49,0,0,1,90,1043.5Z"/><path id="Stroke-13-5" data-name="Stroke-13" class="cls-9" d="M90,1133.5A21.5,21.5,0,1,1,68.5,1112,21.49,21.49,0,0,1,90,1133.5Z"/><path id="Stroke-15-3" data-name="Stroke-15" class="cls-11" d="M157,994.5A21.5,21.5,0,1,1,135.5,973,21.5,21.5,0,0,1,157,994.5Z"/><path id="Stroke-17-3" data-name="Stroke-17" class="cls-11" d="M157,1086.5a21.5,21.5,0,1,1-21.5-21.5A21.5,21.5,0,0,1,157,1086.5Z"/></g></g></g></g></g></g></svg>