<?xml version="1.0" encoding="iso-8859-1"?>
<!-- Generator: Adobe Illustrator 19.0.0, SVG Export Plug-In . SVG Version: 6.00 Build 0)  -->
<svg version="1.1" id="Layer_1" xmlns="http://www.w3.org/2000/svg" xmlns:xlink="http://www.w3.org/1999/xlink" x="0px" y="0px"
	 viewBox="0 0 512 512" style="enable-background:new 0 0 512 512;" xml:space="preserve">
<path style="fill:#735538;" d="M305.267,16.257h-98.534c-25.704,0-46.613,20.908-46.613,46.613v63.091h191.76V62.87
	C351.88,37.165,330.971,16.257,305.267,16.257z M320.533,94.614H191.467V62.87c0-8.422,6.844-15.266,15.266-15.266h98.534
	c8.422,0,15.266,6.844,15.266,15.266V94.614z"/>
<path style="fill:#5D412A;" d="M351.88,62.87v63.091H256V94.614h64.533V62.87c0-8.422-6.844-15.266-15.266-15.266H256V16.257h49.267
	C330.971,16.257,351.88,37.165,351.88,62.87z"/>
<g>
	<rect x="236.492" y="285.581" style="fill:#00A5FF;" width="39.016" height="19.508"/>
	<polygon style="fill:#00A5FF;" points="496.327,256.04 512,252.174 512,495.74 0,495.74 0,252.174 15.673,256.04 31.347,259.896 
		119.129,281.525 121.083,282.016 205.145,302.726 205.145,336.435 306.855,336.435 306.855,302.726 390.917,282.016 
		392.871,281.525 480.653,259.896 	"/>
</g>
<g>
	<rect x="256" y="285.581" style="fill:#0082D2;" width="19.508" height="19.508"/>
	<polygon style="fill:#0082D2;" points="496.327,256.04 512,252.174 512,495.74 256,495.74 256,336.435 306.855,336.435 
		306.855,302.726 390.917,282.016 392.871,281.525 480.653,259.896 	"/>
</g>
<rect y="430.079" style="fill:#006DF3;" width="512" height="65.663"/>
<rect x="256" y="430.079" style="fill:#005FD1;" width="256" height="65.663"/>
<g>
	<rect x="236.492" y="285.581" style="fill:#FF8900;" width="39.016" height="19.508"/>
	<path style="fill:#FF8900;" d="M512,158.457v61.44l-15.673,3.866L385.39,251.087l-4.002,0.993l-74.533,18.359v-16.071h-101.71
		v16.071l-77.093-18.996l-1.442-0.355L15.673,223.763L0,219.897v-61.44c0-35.203,25.287-63.833,56.362-63.843h399.276
		C486.713,94.624,512,123.255,512,158.457z"/>
</g>
<path style="fill:#735538;" d="M496.327,223.763L385.39,251.087l-4.002,0.993l-74.533,18.359v-16.071h-101.71v16.071l-77.093-18.996
	l-1.442-0.355L15.673,223.763L0,219.897v32.277l15.673,3.866l15.673,3.856l87.782,21.629l1.954,0.491l84.062,20.71v33.708h101.71
	v-33.708l84.062-20.71l1.954-0.491l87.782-21.629l15.673-3.856L512,252.174v-32.277L496.327,223.763z M275.508,305.088h-39.016
	v-19.508h39.016V305.088z"/>
<polygon style="fill:#5D412A;" points="512,219.897 512,252.174 496.327,256.04 480.653,259.896 392.871,281.525 390.917,282.016 
	306.855,302.726 306.855,336.435 256,336.435 256,305.088 275.508,305.088 275.508,285.579 256,285.579 256,254.368 
	306.855,254.368 306.855,270.439 381.388,252.08 385.39,251.087 496.327,223.763 "/>
<g>
</g>
<g>
</g>
<g>
</g>
<g>
</g>
<g>
</g>
<g>
</g>
<g>
</g>
<g>
</g>
<g>
</g>
<g>
</g>
<g>
</g>
<g>
</g>
<g>
</g>
<g>
</g>
<g>
</g>
</svg>
