<?xml version="1.0" encoding="utf-8"?>
<!-- Generator: Adobe Illustrator 24.2.3, SVG Export Plug-In . SVG Version: 6.00 Build 0)  -->
<svg version="1.1" id="Layer_1" xmlns="http://www.w3.org/2000/svg" xmlns:xlink="http://www.w3.org/1999/xlink" x="0px" y="0px"
	 viewBox="0 0 120.7 122.9" style="enable-background:new 0 0 120.7 122.9;" xml:space="preserve">
<style type="text/css">
	.st0{fill-rule:evenodd;clip-rule:evenodd;fill:#38BDF8;}
</style>
<g>
	<path class="st0" d="M40.5,0h75c1.4,0,2.7,0.6,3.7,1.5v0l0,0l0,0c0.9,1,1.5,2.3,1.5,3.7V77c0,1.4-0.6,2.7-1.5,3.7
		c-0.9,0.9-2.3,1.5-3.7,1.5H89.2c0-1.6-0.1-3.2-0.3-4.7h26.6c0.1,0,0.3-0.1,0.3-0.2c0.1-0.1,0.2-0.2,0.2-0.3V18.7l0,0
		c-0.2,0-0.3,0-0.5,0h-75c-0.2,0-0.3,0-0.5,0v15c-1.6,0-3.2,0.1-4.7,0.2V5.2c0-1.4,0.6-2.8,1.5-3.7C36.9,1.5,37,1.4,37,1.4
		C38,0.5,39.2,0,40.5,0L40.5,0L40.5,0z M71.1,100.3c0.1-0.2,0.3-0.5,0.4-0.7l0,0c0.2-0.3,0.3-0.6,0.5-0.9c0.2-0.3,0.3-0.7,0.5-1
		c0.2-0.4,0.3-0.7,0.5-1l0.1-0.1c0.2-0.5,0.4-1.1,0.6-1.6s0.4-1.1,0.6-1.6v0c0.2-0.5,0.3-1.1,0.5-1.7c0.1-0.6,0.3-1.1,0.4-1.7
		c0.1-0.5,0.2-0.9,0.2-1.3c0.1-0.4,0.1-0.9,0.2-1.3v0c0.1-0.4,0.1-0.8,0.1-1.2c0-0.3,0.1-0.7,0.1-1h-9.8c-0.1,1.3-0.2,2.6-0.4,3.8
		c-0.2,1.3-0.6,2.7-1,4c-0.4,1.3-0.9,2.6-1.4,3.9c-0.5,1.2-1.1,2.3-1.7,3.5L71.1,100.3L71.1,100.3z M68.1,104.8h-9.6
		c-0.8,1.2-1.7,2.3-2.6,3.5c-1,1.2-2,2.4-3.1,3.6c-1,1.1-2.1,2.2-3.3,3.3c-0.9,0.9-1.9,1.8-2.9,2.7l0.8-0.2c0.6-0.1,1.1-0.2,1.7-0.4
		c0.6-0.1,1.1-0.3,1.7-0.5s1.1-0.4,1.7-0.6c0.5-0.2,1.1-0.4,1.6-0.7c0.5-0.2,1.1-0.5,1.6-0.7s1-0.5,1.6-0.8c0.5-0.3,1-0.6,1.5-0.9
		c0.5-0.3,1-0.6,1.4-0.9c0.5-0.3,0.9-0.6,1.4-1c0.5-0.3,0.9-0.7,1.3-1c0.4-0.3,0.9-0.7,1.3-1.1c0.4-0.4,0.8-0.8,1.2-1.2
		c0.3-0.3,0.6-0.6,0.9-0.9c0.3-0.3,0.6-0.6,0.9-1c0.2-0.3,0.4-0.5,0.7-0.8L68.1,104.8L68.1,104.8z M33.7,117.8c-1-0.9-2-1.8-2.9-2.7
		c-1.1-1.1-2.2-2.2-3.3-3.3c-1.1-1.2-2.1-2.4-3.1-3.6c-0.9-1.2-1.8-2.3-2.6-3.5h-9.6l0.3,0.4c0.2,0.3,0.4,0.5,0.7,0.8
		c0.6,0.7,1.2,1.3,1.8,1.9l0,0c0.4,0.4,0.8,0.8,1.2,1.2c0.4,0.4,0.9,0.8,1.3,1.1c0.4,0.4,0.9,0.7,1.3,1c0.5,0.3,0.9,0.7,1.4,1
		c0.5,0.3,1,0.6,1.5,0.9c0.5,0.3,1,0.6,1.5,0.8c0.5,0.3,1,0.6,1.6,0.8c0.5,0.3,1.1,0.5,1.6,0.7c0,0,0.1,0,0.1,0.1
		c0.5,0.2,1,0.4,1.6,0.6c0.5,0.2,1.1,0.4,1.6,0.6h0c0.5,0.2,1.1,0.3,1.6,0.5s1.1,0.3,1.7,0.4L33.7,117.8L33.7,117.8z M9.1,100.3h9.8
		c-0.6-1.2-1.2-2.3-1.7-3.5c-0.6-1.3-1-2.6-1.4-3.9c-0.4-1.3-0.7-2.7-0.9-4c-0.2-1.3-0.4-2.5-0.4-3.8H4.6c0,0.3,0.1,0.7,0.1,1
		c0,0.4,0.1,0.8,0.1,1.2c0.1,0.5,0.1,0.9,0.2,1.3s0.2,0.9,0.2,1.3l0,0c0.1,0.6,0.2,1.1,0.4,1.7c0.1,0.6,0.3,1.1,0.5,1.7
		c0.2,0.6,0.4,1.1,0.6,1.7s0.4,1.1,0.7,1.6l0,0c0.1,0.3,0.3,0.7,0.4,1l0,0c0.2,0.3,0.3,0.7,0.5,1c0.2,0.3,0.3,0.6,0.5,0.9
		C8.8,99.8,9,100.1,9.1,100.3L9.1,100.3z M4.6,80.5h9.9c0.1-1.3,0.3-2.5,0.6-3.8c0.3-1.3,0.6-2.7,1.1-4l0,0c0.4-1.3,1-2.6,1.5-3.9
		c0.5-1.2,1.1-2.4,1.8-3.6H9.1C9,65.5,8.8,65.7,8.7,66c-0.2,0.3-0.3,0.6-0.5,0.9l0,0c-0.2,0.3-0.3,0.7-0.5,1c-0.2,0.3-0.3,0.7-0.4,1
		l0,0.1l0,0.1c-0.2,0.5-0.4,1.1-0.6,1.6c-0.2,0.5-0.4,1.1-0.6,1.6c-0.2,0.6-0.3,1.1-0.5,1.7c-0.1,0.6-0.3,1.1-0.4,1.7
		C5.1,76.1,5,76.5,5,76.9c-0.1,0.4-0.1,0.9-0.2,1.3c-0.1,0.4-0.1,0.8-0.1,1.2C4.6,79.9,4.6,80.2,4.6,80.5L4.6,80.5z M12.1,60.7h10.3
		c0.8-1.2,1.7-2.3,2.6-3.4c1-1.2,2-2.4,3-3.5c1-1.1,2.1-2.2,3.2-3.3c0.9-0.9,1.9-1.8,2.9-2.7l-0.4,0.1l-0.7,0.1
		c-0.6,0.1-1.1,0.2-1.7,0.4c-0.6,0.1-1.1,0.3-1.7,0.5c-0.5,0.2-1.1,0.4-1.6,0.6s-1.1,0.4-1.6,0.7c-0.6,0.2-1.1,0.5-1.6,0.7
		s-1,0.5-1.5,0.8c-0.5,0.3-1,0.6-1.5,0.9s-1,0.6-1.4,0.9c-0.5,0.3-0.9,0.7-1.4,1c-0.5,0.3-0.9,0.7-1.3,1c-0.4,0.3-0.9,0.7-1.3,1.1
		c-0.4,0.4-0.8,0.8-1.2,1.2l0,0c-0.3,0.3-0.6,0.6-0.9,0.9c-0.3,0.3-0.6,0.6-0.9,1c-0.2,0.3-0.5,0.5-0.7,0.8L12.1,60.7L12.1,60.7z
		 M46.2,47.7c1,0.9,2,1.8,2.9,2.7c1.1,1.1,2.2,2.2,3.2,3.3c1.1,1.2,2.1,2.4,3,3.5c0.9,1.2,1.8,2.3,2.6,3.4h10.2l-0.3-0.4
		c-0.2-0.3-0.4-0.5-0.7-0.8c-0.3-0.3-0.6-0.7-0.9-1c-0.3-0.3-0.6-0.6-0.9-1c-0.4-0.4-0.8-0.8-1.2-1.2c-0.4-0.4-0.8-0.8-1.3-1.1
		c-0.4-0.4-0.9-0.7-1.3-1c-0.5-0.3-0.9-0.7-1.4-1c-0.5-0.3-1-0.6-1.4-0.9c-0.5-0.3-1-0.6-1.5-0.9s-1-0.5-1.5-0.8S54.5,50.2,54,50
		c0,0-0.1,0-0.1-0.1c-0.5-0.2-1.1-0.4-1.6-0.6c-0.5-0.2-1.1-0.4-1.6-0.5h0c-0.5-0.2-1.1-0.3-1.7-0.5c-0.6-0.1-1.1-0.3-1.7-0.4
		l-0.7-0.1L46.2,47.7L46.2,47.7z M71.1,65.2H60.7c0.7,1.2,1.3,2.4,1.8,3.6c0.6,1.3,1.1,2.6,1.5,3.9c0.4,1.3,0.8,2.7,1.1,4
		c0.3,1.3,0.4,2.5,0.6,3.8h9.9c0-0.3-0.1-0.7-0.1-1c0-0.4-0.1-0.8-0.1-1.2c-0.1-0.5-0.1-0.9-0.2-1.3s-0.2-0.9-0.2-1.3l0,0
		c-0.1-0.6-0.2-1.1-0.4-1.7c-0.1-0.6-0.3-1.1-0.5-1.7s-0.4-1.1-0.6-1.7s-0.4-1.1-0.6-1.6l0,0c-0.1-0.3-0.3-0.7-0.4-1l0,0
		c-0.1-0.3-0.3-0.6-0.5-1c-0.2-0.3-0.3-0.6-0.5-0.9C71.4,65.8,71.2,65.5,71.1,65.2L71.1,65.2z M32.1,43.5c0.7-0.1,1.3-0.3,2-0.3
		s1.3-0.2,2-0.3s1.4-0.1,2-0.2c0.7,0,1.4,0,2.1,0c1.4,0,2.7,0.1,4.1,0.2c0.7,0.1,1.3,0.2,2,0.3c0.7,0.1,1.3,0.2,2,0.3
		c0.6,0.1,1.3,0.3,1.9,0.4s1.3,0.3,1.9,0.5c0.6,0.2,1.2,0.4,1.8,0.6c0.6,0.2,1.2,0.5,1.8,0.7c0.1,0,0.1,0,0.2,0.1
		c0.6,0.3,1.1,0.5,1.7,0.8c0.6,0.3,1.2,0.6,1.7,0.9l0,0c0.6,0.3,1.1,0.6,1.7,1l0,0c0.6,0.3,1.1,0.7,1.6,1c0.5,0.3,1,0.7,1.5,1.1
		c0.5,0.4,1,0.8,1.5,1.2c0.5,0.4,1,0.8,1.5,1.3c0.5,0.4,1,0.9,1.4,1.3l0,0c0.4,0.4,0.9,0.9,1.3,1.4c0.4,0.5,0.8,1,1.3,1.5
		c0.4,0.5,0.8,1,1.2,1.5c0.4,0.5,0.8,1,1.1,1.6l0,0c0.4,0.5,0.7,1.1,1,1.6c0.3,0.5,0.7,1.1,1,1.7c0.3,0.6,0.6,1.1,0.9,1.7
		c0.3,0.6,0.6,1.2,0.8,1.8c0.3,0.6,0.5,1.2,0.7,1.8c0.2,0.6,0.4,1.3,0.6,1.9s0.4,1.3,0.5,1.9c0.2,0.6,0.3,1.3,0.4,1.9
		c0.1,0.7,0.3,1.3,0.3,2c0.1,0.7,0.2,1.3,0.3,2s0.1,1.4,0.2,2c0,0.7,0.1,1.4,0.1,2.1s0,1.4-0.1,2.1c0,0.7-0.1,1.3-0.2,2
		s-0.2,1.3-0.3,2v0c-0.1,0.6-0.2,1.3-0.3,2c-0.1,0.6-0.3,1.3-0.4,1.9c-0.2,0.6-0.3,1.3-0.5,1.9c-0.2,0.6-0.4,1.2-0.6,1.8
		c-0.2,0.6-0.5,1.2-0.7,1.8c0,0.1-0.1,0.1-0.1,0.2c-0.3,0.6-0.5,1.2-0.8,1.8c-0.3,0.6-0.6,1.2-0.9,1.7c-0.3,0.6-0.6,1.1-1,1.7
		c-0.3,0.6-0.7,1.1-1,1.6c-0.3,0.5-0.7,1-1.1,1.6c-0.4,0.5-0.8,1-1.2,1.5l0,0c-0.4,0.5-0.8,1-1.3,1.5l0,0c-0.4,0.5-0.9,0.9-1.3,1.4
		l0,0c-0.4,0.4-0.9,0.9-1.4,1.3c-0.5,0.4-0.9,0.8-1.4,1.3c-0.5,0.4-1,0.8-1.5,1.2c-0.5,0.4-1,0.8-1.6,1.1c-0.5,0.4-1.1,0.7-1.6,1
		s-1.1,0.7-1.7,1c-0.6,0.3-1.2,0.6-1.7,0.9c-0.6,0.3-1.2,0.6-1.8,0.8c-0.6,0.3-1.2,0.5-1.8,0.7c-0.6,0.2-1.3,0.4-1.9,0.6
		c-0.6,0.2-1.3,0.4-1.9,0.5c-0.6,0.2-1.3,0.3-2,0.4c-0.7,0.1-1.3,0.3-2,0.3c-0.7,0.1-1.3,0.2-2,0.3c-1.4,0.1-2.7,0.2-4.1,0.2
		c-0.7,0-1.4,0-2-0.1c-0.7,0-1.3-0.1-2-0.2s-1.3-0.2-2-0.3s-1.3-0.2-2-0.3c-0.6-0.1-1.3-0.3-1.9-0.4s-1.3-0.3-1.9-0.5
		c-0.6-0.2-1.2-0.4-1.8-0.6s-1.2-0.5-1.8-0.7c-0.1,0-0.1,0-0.2-0.1c-0.6-0.3-1.1-0.5-1.7-0.8c-0.6-0.3-1.1-0.6-1.7-0.9
		c-0.6-0.3-1.1-0.6-1.7-1c-0.6-0.3-1.1-0.7-1.7-1.1c-0.5-0.3-1-0.7-1.5-1.1s-1-0.8-1.5-1.2c-0.5-0.4-1-0.8-1.5-1.3
		c-0.5-0.4-1-0.9-1.4-1.3l0,0c-0.4-0.4-0.9-0.9-1.3-1.4c-0.4-0.5-0.8-0.9-1.3-1.4c-0.4-0.5-0.8-1-1.2-1.5c-0.4-0.5-0.8-1-1.1-1.6
		c-0.4-0.5-0.7-1.1-1-1.6c-0.3-0.6-0.7-1.1-1-1.7c-0.3-0.6-0.6-1.1-0.9-1.7c-0.3-0.6-0.6-1.2-0.8-1.8c-0.3-0.6-0.5-1.2-0.7-1.8
		C2.2,96,2,95.4,1.8,94.7c-0.2-0.6-0.4-1.3-0.5-1.9c-0.2-0.6-0.3-1.3-0.4-1.9c-0.1-0.7-0.3-1.3-0.3-2c-0.1-0.7-0.2-1.3-0.3-2
		s-0.1-1.4-0.2-2C0,84.1,0,83.5,0,82.8c0-1.4,0.1-2.7,0.2-4.1c0.1-0.7,0.2-1.3,0.2-2c0.1-0.7,0.2-1.3,0.3-2c0.1-0.6,0.3-1.3,0.4-1.9
		c0.2-0.6,0.3-1.3,0.5-1.9c0.2-0.6,0.4-1.2,0.6-1.8c0.2-0.6,0.5-1.2,0.7-1.8c0-0.1,0-0.1,0.1-0.1l0-0.1c0.3-0.6,0.5-1.2,0.8-1.8
		s0.6-1.2,0.9-1.7c0.3-0.6,0.6-1.1,1-1.7c0.3-0.5,0.7-1.1,1-1.6c0.3-0.5,0.7-1,1.1-1.5s0.8-1,1.2-1.5c0.4-0.5,0.8-1,1.3-1.5
		c0.4-0.5,0.9-1,1.3-1.4l0,0c0.4-0.5,0.9-0.9,1.4-1.3c0.5-0.4,0.9-0.8,1.4-1.3s1-0.8,1.5-1.2l0,0c0.5-0.4,1-0.8,1.6-1.1
		c0.5-0.4,1.1-0.7,1.6-1c0.5-0.3,1.1-0.7,1.7-1c0.6-0.3,1.1-0.6,1.7-0.9c0.6-0.3,1.2-0.6,1.8-0.8l0,0c0.6-0.3,1.2-0.5,1.8-0.7
		c0.6-0.2,1.3-0.4,1.9-0.6c0.6-0.2,1.3-0.4,1.9-0.5C30.8,43.7,31.4,43.6,32.1,43.5L32.1,43.5L32.1,43.5z M42.4,50.3v10.4h9.9
		c-0.6-0.8-1.3-1.6-1.9-2.3c-0.8-0.9-1.6-1.8-2.5-2.8c-0.9-0.9-1.8-1.9-2.8-2.8C44.2,52,43.3,51.2,42.4,50.3L42.4,50.3z M42.4,65.2
		v15.3h18.8c-0.1-1.2-0.3-2.4-0.6-3.6c-0.3-1.3-0.7-2.6-1.2-3.8c-0.5-1.3-1.1-2.7-1.7-4c-0.7-1.3-1.4-2.6-2.2-3.9L42.4,65.2
		L42.4,65.2z M42.4,85v15.3H56c0.8-1.3,1.5-2.6,2.1-3.8c0.6-1.3,1.2-2.6,1.6-3.9c0.4-1.3,0.8-2.6,1-3.9c0.2-1.2,0.4-2.4,0.5-3.6
		L42.4,85L42.4,85z M42.4,104.8v10.6c1-0.8,1.9-1.7,2.8-2.5c1-0.9,2-1.9,3-2.8c0.9-0.9,1.8-1.9,2.7-2.8c0.7-0.8,1.4-1.6,2-2.4
		L42.4,104.8L42.4,104.8z M37.8,115.4v-10.6H27.4c0.6,0.8,1.3,1.6,2,2.4c0.8,0.9,1.7,1.9,2.7,2.8c0.9,0.9,1.9,1.9,3,2.8
		C35.9,113.8,36.8,114.6,37.8,115.4L37.8,115.4z M37.8,100.3V85H18.9c0.1,1.2,0.2,2.4,0.5,3.6c0.3,1.3,0.6,2.6,1,3.9
		c0.4,1.3,1,2.6,1.6,3.9c0.6,1.3,1.3,2.6,2.1,3.8L37.8,100.3L37.8,100.3z M37.8,80.5V65.2H24.7c-0.8,1.3-1.6,2.6-2.2,3.9
		c-0.7,1.3-1.3,2.7-1.7,4c-0.5,1.3-0.9,2.6-1.2,3.8c-0.3,1.2-0.5,2.4-0.6,3.6L37.8,80.5L37.8,80.5z M37.8,60.7V50.3
		c-0.9,0.8-1.8,1.6-2.6,2.4c-1,0.9-1.9,1.9-2.8,2.8c-0.9,0.9-1.7,1.8-2.5,2.8c-0.7,0.8-1.3,1.6-1.9,2.3L37.8,60.7L37.8,60.7z
		 M85.6,64.3h19.9c1.1,0,2,1,2,2.2s-0.9,2.2-2,2.2H87.1C86.7,67.2,86.2,65.7,85.6,64.3L85.6,64.3z M80.6,54.9c0.2,0,0.3-0.1,0.5-0.1
		h24.5c1.1,0,2,1,2,2.2s-0.9,2.2-2,2.2H83.2C82.4,57.7,81.5,56.3,80.6,54.9L80.6,54.9z M47.5,24.2h59.8v23.4h-33
		c-7.2-7-16.4-11.8-26.8-13.3V24.2L47.5,24.2z M70.2,6.8c1.9,0,3.4,1.5,3.4,3.4s-1.5,3.4-3.4,3.4s-3.4-1.5-3.4-3.4
		C66.8,8.3,68.3,6.8,70.2,6.8L70.2,6.8z M58.3,6.8c1.9,0,3.4,1.5,3.4,3.4s-1.5,3.4-3.4,3.4s-3.4-1.5-3.4-3.4
		C54.9,8.3,56.4,6.8,58.3,6.8L58.3,6.8z M46.4,6.8c1.9,0,3.4,1.5,3.4,3.4s-1.5,3.4-3.4,3.4S43,12,43,10.1S44.6,6.8,46.4,6.8
		L46.4,6.8z"/>
</g>
</svg>
