<?xml version="1.0" encoding="utf-8"?>
<!-- Generator: Adobe Illustrator 24.3.0, SVG Export Plug-In . SVG Version: 6.00 Build 0)  -->
<svg version="1.1" id="Layer_1" xmlns="http://www.w3.org/2000/svg" xmlns:xlink="http://www.w3.org/1999/xlink" x="0px" y="0px"
	 viewBox="0 0 512 512" style="enable-background:new 0 0 512 512;" xml:space="preserve">
<style type="text/css">
	.st0{fill:url(#XMLID_7_);}
	.st1{fill:#D2E7BE;}
	.st2{fill:#FFFFFF;}
</style>
<g id="XMLID_1_">
	
		<linearGradient id="XMLID_7_" gradientUnits="userSpaceOnUse" x1="-343.0395" y1="571.2105" x2="-341.8146" y2="571.2105" gradientTransform="matrix(0 418 -418 0 239022 143390.5)">
		<stop  offset="0" style="stop-color:#77B900"/>
		<stop  offset="0.8889" style="stop-color:#389500"/>
		<stop  offset="1" style="stop-color:#389500"/>
	</linearGradient>
	<path id="XMLID_3_" class="st0" d="M0,460.8V51.2C0,23,22.86,0,51.2,0h409.6C489,0,512,22.86,512,51.2v409.6
		c0,28.2-22.86,51.2-51.2,51.2H51.2C22.86,512,0,489.14,0,460.8z"/>
	<path id="XMLID_4_" class="st1" d="M94.26,138.87v234.4c0.14,0,0.28,0.14,0.28,0.28h76.87v-235.1H94.83"/>
	<path id="XMLID_5_" class="st2" d="M419.14,74.77L357,138.87H94.26l76.45-77.71h242.67C420.4,61.3,424.05,69.72,419.14,74.77z"/>
	<path id="XMLID_6_" class="st2" d="M419.14,437.51L357,373.27H94.26l76.45,77.71h242.67C420.4,450.98,424.05,442.56,419.14,437.51z
		"/>
</g>
</svg>
